<svg width="230" height="38" viewBox="0 0 230 38" fill="none" xmlns="http://www.w3.org/2000/svg">
<path d="M19.4521 10.958H18.3001V21.686C18.3001 21.998 18.4081 22.268 18.6241 22.496C18.8521 22.712 19.1281 22.82 19.4521 22.82H19.6681L19.6861 23H15.7441V22.82H15.9781C16.2901 22.82 16.5541 22.712 16.7701 22.496C16.9981 22.28 17.1181 22.016 17.1301 21.704V11.714C17.1181 11.402 16.9981 11.138 16.7701 10.922C16.5541 10.694 16.2901 10.58 15.9781 10.58H15.7441V10.4H20.6041C21.6961 10.4 22.5541 10.706 23.1781 11.318C23.8021 11.918 24.1141 12.704 24.1141 13.676C24.1141 14.636 23.8141 15.47 23.2141 16.178C22.6261 16.874 21.9061 17.222 21.0541 17.222C21.2341 17.306 21.4441 17.474 21.6841 17.726C21.9361 17.966 22.1581 18.218 22.3501 18.482C23.3821 19.958 24.0541 20.87 24.3661 21.218C24.6781 21.554 24.9001 21.788 25.0321 21.92C25.1641 22.04 25.3081 22.16 25.4641 22.28C25.6201 22.4 25.7761 22.496 25.9321 22.568C26.2801 22.736 26.6521 22.82 27.0481 22.82V23H26.0581C25.5421 23 25.0621 22.91 24.6181 22.73C24.1741 22.538 23.8381 22.346 23.6101 22.154C23.3941 21.95 23.2021 21.758 23.0341 21.578C22.8781 21.386 22.4341 20.762 21.7021 19.706C20.9701 18.65 20.5441 18.05 20.4241 17.906C20.3041 17.75 20.1781 17.6 20.0461 17.456C19.6621 17.048 19.2781 16.844 18.8941 16.844V16.664C18.9901 16.676 19.1161 16.682 19.2721 16.682C19.4281 16.682 19.6201 16.676 19.8481 16.664C21.3361 16.628 22.2721 16.004 22.6561 14.792C22.7281 14.552 22.7641 14.33 22.7641 14.126C22.7641 13.91 22.7641 13.772 22.7641 13.712C22.7401 12.908 22.5301 12.26 22.1341 11.768C21.7381 11.276 21.2041 11.012 20.5321 10.976C20.2441 10.964 19.8841 10.958 19.4521 10.958ZM27.5428 22.82C27.8308 22.82 28.0708 22.73 28.2628 22.55C28.4668 22.358 28.5748 22.13 28.5868 21.866V13.316C28.5868 13.052 28.4848 12.83 28.2808 12.65C28.0768 12.47 27.8308 12.38 27.5428 12.38H27.2908V12.2H32.5468C33.0388 12.2 33.4708 12.164 33.8428 12.092C34.2148 12.02 34.4548 11.96 34.5628 11.912V13.964L34.3648 13.946V13.676C34.3648 13.424 34.2808 13.208 34.1128 13.028C33.9448 12.848 33.7288 12.758 33.4648 12.758H29.7208V17.33H32.7988C33.0388 17.33 33.2188 17.258 33.3388 17.114C33.4708 16.97 33.5368 16.79 33.5368 16.574V16.34H33.7348V18.86H33.5368V18.626C33.5368 18.29 33.4108 18.062 33.1588 17.942C33.0628 17.906 32.9608 17.882 32.8528 17.87H29.7208V22.442H32.5468C33.0988 22.442 33.5608 22.346 33.9328 22.154C34.3168 21.962 34.6048 21.734 34.7968 21.47C35.0008 21.206 35.2048 20.858 35.4088 20.426H35.5888L34.5988 23H27.2908V22.82H27.5428ZM42.931 23.252C41.143 23.24 39.709 22.73 38.629 21.722C37.561 20.702 37.027 19.328 37.027 17.6C37.027 15.86 37.561 14.486 38.629 13.478C39.709 12.458 41.095 11.948 42.787 11.948C44.491 11.948 45.937 12.308 47.125 13.028L47.521 15.584H47.359C47.107 14.528 46.615 13.748 45.883 13.244C45.163 12.74 44.137 12.488 42.805 12.488C41.485 12.488 40.405 12.95 39.565 13.874C38.737 14.786 38.323 16.028 38.323 17.6C38.323 19.172 38.743 20.42 39.583 21.344C40.423 22.256 41.581 22.712 43.057 22.712C44.545 22.712 45.823 22.19 46.891 21.146L46.909 18.752C46.921 18.536 46.849 18.368 46.693 18.248C46.549 18.116 46.345 18.05 46.081 18.05H45.829V17.87H49.123V18.05H48.871C48.331 18.05 48.061 18.29 48.061 18.77V20.93C47.557 21.554 46.861 22.1 45.973 22.568C45.097 23.024 44.083 23.252 42.931 23.252ZM62.5723 12.38C62.3083 12.38 62.0803 12.47 61.8883 12.65C61.6963 12.818 61.5943 13.028 61.5823 13.28V20.948C61.5823 21.644 61.6243 22.304 61.7083 22.928L61.7443 23.252H61.5823L52.2223 14.378V21.884C52.2223 22.148 52.3183 22.37 52.5103 22.55C52.7023 22.73 52.9363 22.82 53.2123 22.82H53.5183V23H50.1163V22.82H50.4223C50.6983 22.82 50.9323 22.73 51.1243 22.55C51.3163 22.37 51.4123 22.148 51.4123 21.884V14.18C51.4123 13.448 51.3703 12.794 51.2863 12.218L51.2503 11.93L51.4483 11.948L60.7903 20.75V13.28C60.7663 13.028 60.6583 12.818 60.4663 12.65C60.2743 12.47 60.0463 12.38 59.7823 12.38H59.4763V12.2H62.8783V12.38H62.5723ZM75.4837 12.38H75.2137C74.8897 12.38 74.6437 12.506 74.4757 12.758C74.4037 12.866 74.3617 12.992 74.3497 13.136V19.202C74.3497 20.45 73.9477 21.44 73.1437 22.172C72.3517 22.892 71.2597 23.252 69.8677 23.252C68.4757 23.252 67.3777 22.892 66.5737 22.172C65.7697 21.452 65.3677 20.468 65.3677 19.22V13.154C65.3677 12.938 65.2837 12.758 65.1157 12.614C64.9477 12.458 64.7437 12.38 64.5037 12.38H64.2337V12.2H67.6537V12.38H67.3837C67.1437 12.38 66.9397 12.458 66.7717 12.614C66.6037 12.758 66.5197 12.938 66.5197 13.154V19.004C66.5197 20.168 66.8137 21.086 67.4017 21.758C68.0017 22.43 68.8417 22.766 69.9217 22.766C71.0137 22.766 71.8837 22.448 72.5317 21.812C73.1917 21.176 73.5217 20.306 73.5217 19.202V13.154C73.5097 12.926 73.4197 12.74 73.2517 12.596C73.0957 12.452 72.8977 12.38 72.6577 12.38H72.3877V12.2H75.4837V12.38ZM91.4373 22.82H91.7073V23H87.9633V22.838H88.2333C88.4133 22.838 88.5693 22.772 88.7013 22.64C88.8453 22.496 88.9053 22.328 88.8813 22.136L87.9453 14.72L84.5433 21.416C84.2073 22.148 83.9973 22.76 83.9133 23.252H83.7333L79.3953 14.882L78.5853 22.136C78.5613 22.316 78.6153 22.478 78.7473 22.622C78.8913 22.766 79.0593 22.838 79.2513 22.838H79.5033V23H76.1733V22.82H76.4433C76.8753 22.82 77.2113 22.664 77.4513 22.352C77.5713 22.196 77.6433 22.01 77.6673 21.794L79.0713 11.948H79.2513L84.0033 21.092L88.5933 11.948H88.7553L90.2133 21.83C90.2613 22.13 90.3993 22.37 90.6273 22.55C90.8553 22.73 91.1253 22.82 91.4373 22.82ZM99.374 11.966C100.574 10.754 102.134 10.148 104.054 10.148C105.974 10.148 107.534 10.754 108.734 11.966C109.934 13.166 110.534 14.744 110.534 16.7C110.534 18.656 109.934 20.24 108.734 21.452C107.534 22.652 105.974 23.252 104.054 23.252C102.134 23.252 100.574 22.652 99.374 21.452C98.186 20.24 97.592 18.656 97.592 16.7C97.592 14.744 98.186 13.166 99.374 11.966ZM100.364 21.056C101.3 22.16 102.53 22.712 104.054 22.712C105.59 22.712 106.82 22.16 107.744 21.056C108.68 19.952 109.148 18.5 109.148 16.7C109.148 15.512 108.938 14.462 108.518 13.55C108.098 12.638 107.498 11.936 106.718 11.444C105.95 10.94 105.062 10.688 104.054 10.688C102.53 10.688 101.3 11.24 100.364 12.344C99.44 13.448 98.978 14.9 98.978 16.7C98.978 18.5 99.44 19.952 100.364 21.056ZM115.419 12.758H114.465V21.848C114.477 22.22 114.645 22.502 114.969 22.694C115.125 22.778 115.299 22.82 115.491 22.82H115.725L115.743 23H112.053V22.82H112.305C112.581 22.82 112.815 22.73 113.007 22.55C113.211 22.358 113.312 22.13 113.312 21.866V13.316C113.312 13.052 113.211 12.83 113.007 12.65C112.815 12.47 112.581 12.38 112.305 12.38H112.053V12.2H116.571C117.699 12.2 118.587 12.458 119.235 12.974C119.895 13.49 120.225 14.168 120.225 15.008C120.225 15.848 119.961 16.55 119.433 17.114C118.905 17.678 118.233 18.002 117.417 18.086C117.801 18.254 118.263 18.722 118.803 19.49C118.791 19.49 118.995 19.754 119.415 20.282C119.847 20.81 120.189 21.224 120.441 21.524C120.705 21.812 120.921 22.034 121.089 22.19C121.533 22.61 122.043 22.82 122.619 22.82V23H122.061C121.113 23 120.369 22.814 119.829 22.442C119.421 22.166 119.049 21.824 118.713 21.416C118.641 21.32 118.335 20.9 117.795 20.156C117.267 19.4 116.985 18.998 116.949 18.95C116.301 18.146 115.695 17.744 115.131 17.744V17.564C116.535 17.564 117.381 17.492 117.669 17.348C118.065 17.144 118.335 16.928 118.479 16.7C118.779 16.22 118.929 15.692 118.929 15.116C118.929 14.384 118.713 13.82 118.281 13.424C117.849 13.028 117.267 12.812 116.535 12.776C116.211 12.764 115.839 12.758 115.419 12.758ZM128.519 23.252C126.731 23.24 125.297 22.73 124.217 21.722C123.149 20.702 122.615 19.328 122.615 17.6C122.615 15.86 123.149 14.486 124.217 13.478C125.297 12.458 126.683 11.948 128.375 11.948C130.079 11.948 131.525 12.308 132.713 13.028L133.109 15.584H132.947C132.695 14.528 132.203 13.748 131.471 13.244C130.751 12.74 129.725 12.488 128.393 12.488C127.073 12.488 125.993 12.95 125.153 13.874C124.325 14.786 123.911 16.028 123.911 17.6C123.911 19.172 124.331 20.42 125.171 21.344C126.011 22.256 127.169 22.712 128.645 22.712C130.133 22.712 131.411 22.19 132.479 21.146L132.497 18.752C132.509 18.536 132.437 18.368 132.281 18.248C132.137 18.116 131.933 18.05 131.669 18.05H131.417V17.87H134.711V18.05H134.459C133.919 18.05 133.649 18.29 133.649 18.77V20.93C133.145 21.554 132.449 22.1 131.561 22.568C130.685 23.024 129.671 23.252 128.519 23.252ZM146.954 22.82H147.098V23H143.408V22.82H143.552C143.78 22.82 143.954 22.742 144.074 22.586C144.194 22.43 144.254 22.286 144.254 22.154C144.254 22.01 144.23 21.872 144.182 21.74L143.192 19.346H138.638L137.648 21.686C137.588 21.842 137.558 21.992 137.558 22.136C137.558 22.268 137.618 22.418 137.738 22.586C137.858 22.742 138.038 22.82 138.278 22.82H138.422V23H134.984V22.82H135.128C135.38 22.82 135.632 22.736 135.884 22.568C136.148 22.388 136.364 22.124 136.532 21.776C139.16 16.16 140.528 13.22 140.636 12.956C140.84 12.452 140.948 12.116 140.96 11.948H141.122L145.568 21.776C145.916 22.472 146.378 22.82 146.954 22.82ZM138.872 18.806H142.976L140.96 13.874L138.872 18.806ZM160.096 12.38C159.832 12.38 159.604 12.47 159.412 12.65C159.22 12.818 159.118 13.028 159.106 13.28V20.948C159.106 21.644 159.148 22.304 159.232 22.928L159.268 23.252H159.106L149.746 14.378V21.884C149.746 22.148 149.842 22.37 150.034 22.55C150.226 22.73 150.46 22.82 150.736 22.82H151.042V23H147.64V22.82H147.946C148.222 22.82 148.456 22.73 148.648 22.55C148.84 22.37 148.936 22.148 148.936 21.884V14.18C148.936 13.448 148.894 12.794 148.81 12.218L148.774 11.93L148.972 11.948L158.314 20.75V13.28C158.29 13.028 158.182 12.818 157.99 12.65C157.798 12.47 157.57 12.38 157.306 12.38H157V12.2H160.402V12.38H160.096ZM162.279 22.82C162.603 22.82 162.885 22.724 163.125 22.532C163.365 22.34 163.485 22.112 163.485 21.848V13.352C163.485 13.088 163.365 12.86 163.125 12.668C162.885 12.476 162.597 12.38 162.261 12.38H162.027V12.2H166.095V12.38H165.861C165.537 12.38 165.255 12.47 165.015 12.65C164.787 12.83 164.661 13.052 164.637 13.316V21.866C164.649 22.13 164.775 22.358 165.015 22.55C165.255 22.73 165.537 22.82 165.861 22.82H166.095L166.113 23H162.027V22.82H162.279ZM173.66 23.252C171.824 23.24 170.372 22.73 169.304 21.722C168.248 20.714 167.72 19.34 167.72 17.6C167.72 15.848 168.248 14.468 169.304 13.46C170.372 12.452 171.824 11.948 173.66 11.948C174.404 11.948 175.154 12.044 175.91 12.236C176.666 12.428 177.32 12.692 177.872 13.028L178.268 15.584H178.106C177.59 13.52 176.102 12.488 173.642 12.488C172.214 12.488 171.086 12.944 170.258 13.856C169.43 14.768 169.016 16.016 169.016 17.6C169.016 18.632 169.202 19.532 169.574 20.3C169.946 21.056 170.486 21.644 171.194 22.064C171.902 22.484 172.724 22.694 173.66 22.694C174.596 22.694 175.412 22.556 176.108 22.28C176.816 21.992 177.398 21.524 177.854 20.876C178.322 20.228 178.586 19.424 178.646 18.464H178.808L178.61 20.93C178.142 21.65 177.464 22.22 176.576 22.64C175.688 23.048 174.716 23.252 173.66 23.252ZM191.482 12.38H191.212C190.888 12.38 190.642 12.506 190.474 12.758C190.402 12.866 190.36 12.992 190.348 13.136V19.202C190.348 20.45 189.946 21.44 189.142 22.172C188.35 22.892 187.258 23.252 185.866 23.252C184.474 23.252 183.376 22.892 182.572 22.172C181.768 21.452 181.366 20.468 181.366 19.22V13.154C181.366 12.938 181.282 12.758 181.114 12.614C180.946 12.458 180.742 12.38 180.502 12.38H180.232V12.2H183.652V12.38H183.382C183.142 12.38 182.938 12.458 182.77 12.614C182.602 12.758 182.518 12.938 182.518 13.154V19.004C182.518 20.168 182.812 21.086 183.4 21.758C184 22.43 184.84 22.766 185.92 22.766C187.012 22.766 187.882 22.448 188.53 21.812C189.19 21.176 189.52 20.306 189.52 19.202V13.154C189.508 12.926 189.418 12.74 189.25 12.596C189.094 12.452 188.896 12.38 188.656 12.38H188.386V12.2H191.482V12.38ZM196.471 12.758H195.517V21.848C195.529 22.22 195.697 22.502 196.021 22.694C196.177 22.778 196.351 22.82 196.543 22.82H196.777L196.795 23H193.105V22.82H193.357C193.633 22.82 193.867 22.73 194.059 22.55C194.263 22.358 194.365 22.13 194.365 21.866V13.316C194.365 13.052 194.263 12.83 194.059 12.65C193.867 12.47 193.633 12.38 193.357 12.38H193.105V12.2H197.623C198.751 12.2 199.639 12.458 200.287 12.974C200.947 13.49 201.277 14.168 201.277 15.008C201.277 15.848 201.013 16.55 200.485 17.114C199.957 17.678 199.285 18.002 198.469 18.086C198.853 18.254 199.315 18.722 199.855 19.49C199.843 19.49 200.047 19.754 200.467 20.282C200.899 20.81 201.241 21.224 201.493 21.524C201.757 21.812 201.973 22.034 202.141 22.19C202.585 22.61 203.095 22.82 203.671 22.82V23H203.113C202.165 23 201.421 22.814 200.881 22.442C200.473 22.166 200.101 21.824 199.765 21.416C199.693 21.32 199.387 20.9 198.847 20.156C198.319 19.4 198.037 18.998 198.001 18.95C197.353 18.146 196.747 17.744 196.183 17.744V17.564C197.587 17.564 198.433 17.492 198.721 17.348C199.117 17.144 199.387 16.928 199.531 16.7C199.831 16.22 199.981 15.692 199.981 15.116C199.981 14.384 199.765 13.82 199.333 13.424C198.901 13.028 198.319 12.812 197.587 12.776C197.263 12.764 196.891 12.758 196.471 12.758ZM215.28 22.82H215.424V23H211.734V22.82H211.878C212.106 22.82 212.28 22.742 212.4 22.586C212.52 22.43 212.58 22.286 212.58 22.154C212.58 22.01 212.556 21.872 212.508 21.74L211.518 19.346H206.964L205.974 21.686C205.914 21.842 205.884 21.992 205.884 22.136C205.884 22.268 205.944 22.418 206.064 22.586C206.184 22.742 206.364 22.82 206.604 22.82H206.748V23H203.31V22.82H203.454C203.706 22.82 203.958 22.736 204.21 22.568C204.474 22.388 204.69 22.124 204.858 21.776C207.486 16.16 208.854 13.22 208.962 12.956C209.166 12.452 209.274 12.116 209.286 11.948H209.448L213.894 21.776C214.242 22.472 214.704 22.82 215.28 22.82ZM207.198 18.806H211.302L209.286 13.874L207.198 18.806Z" fill="#284D39"/>
<path d="M104 0C103.615 0 103.302 0.377775 103.302 0.84375C103.302 1.30974 103.615 1.6875 104 1.6875C104.385 1.6875 104.698 1.30974 104.698 0.84375C104.698 0.377775 104.385 0 104 0ZM103.64 1.88086L102.023 4.64062L99.9557 3.687C99.8804 3.77799 99.7893 3.84688 99.6868 3.88915L100.744 7.59375H107.256L108.313 3.88915C108.211 3.84688 108.12 3.77799 108.044 3.687L105.977 4.64062L104.36 1.88086C104.249 1.93805 104.128 1.96875 104 1.96875C103.872 1.96875 103.751 1.93805 103.64 1.88086ZM99.4651 2.53125C99.2082 2.53125 99 2.7831 99 3.09375C99 3.40441 99.2082 3.65625 99.4651 3.65625C99.722 3.65625 99.9302 3.40441 99.9302 3.09375C99.9302 2.7831 99.722 2.53125 99.4651 2.53125ZM108.535 2.53125C108.278 2.53125 108.07 2.7831 108.07 3.09375C108.07 3.40441 108.278 3.65625 108.535 3.65625C108.792 3.65625 109 3.40441 109 3.09375C109 2.7831 108.792 2.53125 108.535 2.53125ZM100.744 8.15625V9H107.256V8.15625H100.744Z" fill="#284D39"/>
</svg>
