<svg width="182" height="45" viewBox="0 0 182 45" fill="none" xmlns="http://www.w3.org/2000/svg">
<path d="M11.3767 10.965H10.4167V19.905C10.4167 20.165 10.5067 20.39 10.6867 20.58C10.8767 20.76 11.1067 20.85 11.3767 20.85H11.5567L11.5717 21H8.28672V20.85H8.48172C8.74172 20.85 8.96172 20.76 9.14172 20.58C9.33172 20.4 9.43172 20.18 9.44172 19.92V11.595C9.43172 11.335 9.33172 11.115 9.14172 10.935C8.96172 10.745 8.74172 10.65 8.48172 10.65H8.28672V10.5H12.3367C13.2467 10.5 13.9617 10.755 14.4817 11.265C15.0017 11.765 15.2617 12.42 15.2617 13.23C15.2617 14.03 15.0117 14.725 14.5117 15.315C14.0217 15.895 13.4217 16.185 12.7117 16.185C12.8617 16.255 13.0367 16.395 13.2367 16.605C13.4467 16.805 13.6317 17.015 13.7917 17.235C14.6517 18.465 15.2117 19.225 15.4717 19.515C15.7317 19.795 15.9167 19.99 16.0267 20.1C16.1367 20.2 16.2567 20.3 16.3867 20.4C16.5167 20.5 16.6467 20.58 16.7767 20.64C17.0667 20.78 17.3767 20.85 17.7067 20.85V21H16.8817C16.4517 21 16.0517 20.925 15.6817 20.775C15.3117 20.615 15.0317 20.455 14.8417 20.295C14.6617 20.125 14.5017 19.965 14.3617 19.815C14.2317 19.655 13.8617 19.135 13.2517 18.255C12.6417 17.375 12.2867 16.875 12.1867 16.755C12.0867 16.625 11.9817 16.5 11.8717 16.38C11.5517 16.04 11.2317 15.87 10.9117 15.87V15.72C10.9917 15.73 11.0967 15.735 11.2267 15.735C11.3567 15.735 11.5167 15.73 11.7067 15.72C12.9467 15.69 13.7267 15.17 14.0467 14.16C14.1067 13.96 14.1367 13.775 14.1367 13.605C14.1367 13.425 14.1367 13.31 14.1367 13.26C14.1167 12.59 13.9417 12.05 13.6117 11.64C13.2817 11.23 12.8367 11.01 12.2767 10.98C12.0367 10.97 11.7367 10.965 11.3767 10.965ZM18.119 20.85C18.359 20.85 18.559 20.775 18.719 20.625C18.889 20.465 18.979 20.275 18.989 20.055V12.93C18.989 12.71 18.904 12.525 18.734 12.375C18.564 12.225 18.359 12.15 18.119 12.15H17.909V12H22.289C22.699 12 23.059 11.97 23.369 11.91C23.679 11.85 23.879 11.8 23.969 11.76V13.47L23.804 13.455V13.23C23.804 13.02 23.734 12.84 23.594 12.69C23.454 12.54 23.274 12.465 23.054 12.465H19.934V16.275H22.499C22.699 16.275 22.849 16.215 22.949 16.095C23.059 15.975 23.114 15.825 23.114 15.645V15.45H23.279V17.55H23.114V17.355C23.114 17.075 23.009 16.885 22.799 16.785C22.719 16.755 22.634 16.735 22.544 16.725H19.934V20.535H22.289C22.749 20.535 23.134 20.455 23.444 20.295C23.764 20.135 24.004 19.945 24.164 19.725C24.334 19.505 24.504 19.215 24.674 18.855H24.824L23.999 21H17.909V20.85H18.119ZM30.9425 21.21C29.4525 21.2 28.2575 20.775 27.3575 19.935C26.4675 19.085 26.0225 17.94 26.0225 16.5C26.0225 15.05 26.4675 13.905 27.3575 13.065C28.2575 12.215 29.4125 11.79 30.8225 11.79C32.2425 11.79 33.4475 12.09 34.4375 12.69L34.7675 14.82H34.6325C34.4225 13.94 34.0125 13.29 33.4025 12.87C32.8025 12.45 31.9475 12.24 30.8375 12.24C29.7375 12.24 28.8375 12.625 28.1375 13.395C27.4475 14.155 27.1025 15.19 27.1025 16.5C27.1025 17.81 27.4525 18.85 28.1525 19.62C28.8525 20.38 29.8175 20.76 31.0475 20.76C32.2875 20.76 33.3525 20.325 34.2425 19.455L34.2575 17.46C34.2675 17.28 34.2075 17.14 34.0775 17.04C33.9575 16.93 33.7875 16.875 33.5675 16.875H33.3575V16.725H36.1025V16.875H35.8925C35.4425 16.875 35.2175 17.075 35.2175 17.475V19.275C34.7975 19.795 34.2175 20.25 33.4775 20.64C32.7475 21.02 31.9025 21.21 30.9425 21.21ZM47.3103 12.15C47.0903 12.15 46.9003 12.225 46.7403 12.375C46.5803 12.515 46.4953 12.69 46.4853 12.9V19.29C46.4853 19.87 46.5203 20.42 46.5903 20.94L46.6203 21.21H46.4853L38.6853 13.815V20.07C38.6853 20.29 38.7653 20.475 38.9253 20.625C39.0853 20.775 39.2803 20.85 39.5103 20.85H39.7653V21H36.9303V20.85H37.1853C37.4153 20.85 37.6103 20.775 37.7703 20.625C37.9303 20.475 38.0103 20.29 38.0103 20.07V13.65C38.0103 13.04 37.9753 12.495 37.9053 12.015L37.8753 11.775L38.0403 11.79L45.8253 19.125V12.9C45.8053 12.69 45.7153 12.515 45.5553 12.375C45.3953 12.225 45.2053 12.15 44.9853 12.15H44.7303V12H47.5653V12.15H47.3103ZM58.0697 12.15H57.8447C57.5747 12.15 57.3697 12.255 57.2297 12.465C57.1697 12.555 57.1347 12.66 57.1247 12.78V17.835C57.1247 18.875 56.7897 19.7 56.1197 20.31C55.4597 20.91 54.5497 21.21 53.3897 21.21C52.2297 21.21 51.3147 20.91 50.6447 20.31C49.9747 19.71 49.6397 18.89 49.6397 17.85V12.795C49.6397 12.615 49.5697 12.465 49.4297 12.345C49.2897 12.215 49.1197 12.15 48.9197 12.15H48.6947V12H51.5447V12.15H51.3197C51.1197 12.15 50.9497 12.215 50.8097 12.345C50.6697 12.465 50.5997 12.615 50.5997 12.795V17.67C50.5997 18.64 50.8447 19.405 51.3347 19.965C51.8347 20.525 52.5347 20.805 53.4347 20.805C54.3447 20.805 55.0697 20.54 55.6097 20.01C56.1597 19.48 56.4347 18.755 56.4347 17.835V12.795C56.4247 12.605 56.3497 12.45 56.2097 12.33C56.0797 12.21 55.9147 12.15 55.7147 12.15H55.4897V12H58.0697V12.15ZM71.3644 20.85H71.5894V21H68.4694V20.865H68.6944C68.8444 20.865 68.9744 20.81 69.0844 20.7C69.2044 20.58 69.2544 20.44 69.2344 20.28L68.4544 14.1L65.6194 19.68C65.3394 20.29 65.1644 20.8 65.0944 21.21H64.9444L61.3294 14.235L60.6544 20.28C60.6344 20.43 60.6794 20.565 60.7894 20.685C60.9094 20.805 61.0494 20.865 61.2094 20.865H61.4194V21H58.6444V20.85H58.8694C59.2294 20.85 59.5094 20.72 59.7094 20.46C59.8094 20.33 59.8694 20.175 59.8894 19.995L61.0594 11.79H61.2094L65.1694 19.41L68.9944 11.79H69.1294L70.3444 20.025C70.3844 20.275 70.4994 20.475 70.6894 20.625C70.8794 20.775 71.1044 20.85 71.3644 20.85ZM77.9784 11.805C78.9784 10.795 80.2784 10.29 81.8784 10.29C83.4784 10.29 84.7784 10.795 85.7784 11.805C86.7784 12.805 87.2784 14.12 87.2784 15.75C87.2784 17.38 86.7784 18.7 85.7784 19.71C84.7784 20.71 83.4784 21.21 81.8784 21.21C80.2784 21.21 78.9784 20.71 77.9784 19.71C76.9884 18.7 76.4934 17.38 76.4934 15.75C76.4934 14.12 76.9884 12.805 77.9784 11.805ZM78.8034 19.38C79.5834 20.3 80.6084 20.76 81.8784 20.76C83.1584 20.76 84.1834 20.3 84.9534 19.38C85.7334 18.46 86.1234 17.25 86.1234 15.75C86.1234 14.76 85.9484 13.885 85.5984 13.125C85.2484 12.365 84.7484 11.78 84.0984 11.37C83.4584 10.95 82.7184 10.74 81.8784 10.74C80.6084 10.74 79.5834 11.2 78.8034 12.12C78.0334 13.04 77.6484 14.25 77.6484 15.75C77.6484 17.25 78.0334 18.46 78.8034 19.38ZM91.3488 12.465H90.5538V20.04C90.5638 20.35 90.7038 20.585 90.9738 20.745C91.1038 20.815 91.2488 20.85 91.4088 20.85H91.6038L91.6188 21H88.5438V20.85H88.7538C88.9838 20.85 89.1788 20.775 89.3388 20.625C89.5088 20.465 89.5938 20.275 89.5938 20.055V12.93C89.5938 12.71 89.5088 12.525 89.3388 12.375C89.1788 12.225 88.9838 12.15 88.7538 12.15H88.5438V12H92.3088C93.2488 12 93.9888 12.215 94.5288 12.645C95.0788 13.075 95.3538 13.64 95.3538 14.34C95.3538 15.04 95.1338 15.625 94.6938 16.095C94.2538 16.565 93.6938 16.835 93.0138 16.905C93.3338 17.045 93.7188 17.435 94.1688 18.075C94.1588 18.075 94.3288 18.295 94.6788 18.735C95.0388 19.175 95.3238 19.52 95.5338 19.77C95.7538 20.01 95.9338 20.195 96.0738 20.325C96.4438 20.675 96.8688 20.85 97.3488 20.85V21H96.8838C96.0938 21 95.4738 20.845 95.0238 20.535C94.6838 20.305 94.3738 20.02 94.0938 19.68C94.0338 19.6 93.7788 19.25 93.3288 18.63C92.8888 18 92.6538 17.665 92.6238 17.625C92.0838 16.955 91.5788 16.62 91.1088 16.62V16.47C92.2788 16.47 92.9838 16.41 93.2238 16.29C93.5538 16.12 93.7788 15.94 93.8988 15.75C94.1488 15.35 94.2738 14.91 94.2738 14.43C94.2738 13.82 94.0938 13.35 93.7338 13.02C93.3738 12.69 92.8888 12.51 92.2788 12.48C92.0088 12.47 91.6988 12.465 91.3488 12.465ZM102.266 21.21C100.776 21.2 99.5807 20.775 98.6807 19.935C97.7907 19.085 97.3457 17.94 97.3457 16.5C97.3457 15.05 97.7907 13.905 98.6807 13.065C99.5807 12.215 100.736 11.79 102.146 11.79C103.566 11.79 104.771 12.09 105.761 12.69L106.091 14.82H105.956C105.746 13.94 105.336 13.29 104.726 12.87C104.126 12.45 103.271 12.24 102.161 12.24C101.061 12.24 100.161 12.625 99.4607 13.395C98.7707 14.155 98.4257 15.19 98.4257 16.5C98.4257 17.81 98.7757 18.85 99.4757 19.62C100.176 20.38 101.141 20.76 102.371 20.76C103.611 20.76 104.676 20.325 105.566 19.455L105.581 17.46C105.591 17.28 105.531 17.14 105.401 17.04C105.281 16.93 105.111 16.875 104.891 16.875H104.681V16.725H107.426V16.875H107.216C106.766 16.875 106.541 17.075 106.541 17.475V19.275C106.121 19.795 105.541 20.25 104.801 20.64C104.071 21.02 103.226 21.21 102.266 21.21ZM117.629 20.85H117.749V21H114.674V20.85H114.794C114.984 20.85 115.129 20.785 115.229 20.655C115.329 20.525 115.379 20.405 115.379 20.295C115.379 20.175 115.359 20.06 115.319 19.95L114.494 17.955H110.699L109.874 19.905C109.824 20.035 109.799 20.16 109.799 20.28C109.799 20.39 109.849 20.515 109.949 20.655C110.049 20.785 110.199 20.85 110.399 20.85H110.519V21H107.654V20.85H107.774C107.984 20.85 108.194 20.78 108.404 20.64C108.624 20.49 108.804 20.27 108.944 19.98C111.134 15.3 112.274 12.85 112.364 12.63C112.534 12.21 112.624 11.93 112.634 11.79H112.769L116.474 19.98C116.764 20.56 117.149 20.85 117.629 20.85ZM110.894 17.505H114.314L112.634 13.395L110.894 17.505ZM128.58 12.15C128.36 12.15 128.17 12.225 128.01 12.375C127.85 12.515 127.765 12.69 127.755 12.9V19.29C127.755 19.87 127.79 20.42 127.86 20.94L127.89 21.21H127.755L119.955 13.815V20.07C119.955 20.29 120.035 20.475 120.195 20.625C120.355 20.775 120.55 20.85 120.78 20.85H121.035V21H118.2V20.85H118.455C118.685 20.85 118.88 20.775 119.04 20.625C119.2 20.475 119.28 20.29 119.28 20.07V13.65C119.28 13.04 119.245 12.495 119.175 12.015L119.145 11.775L119.31 11.79L127.095 19.125V12.9C127.075 12.69 126.985 12.515 126.825 12.375C126.665 12.225 126.475 12.15 126.255 12.15H126V12H128.835V12.15H128.58ZM130.399 20.85C130.669 20.85 130.904 20.77 131.104 20.61C131.304 20.45 131.404 20.26 131.404 20.04V12.96C131.404 12.74 131.304 12.55 131.104 12.39C130.904 12.23 130.664 12.15 130.384 12.15H130.189V12H133.579V12.15H133.384C133.114 12.15 132.879 12.225 132.679 12.375C132.489 12.525 132.384 12.71 132.364 12.93V20.055C132.374 20.275 132.479 20.465 132.679 20.625C132.879 20.775 133.114 20.85 133.384 20.85H133.579L133.594 21H130.189V20.85H130.399ZM139.884 21.21C138.354 21.2 137.144 20.775 136.254 19.935C135.374 19.095 134.934 17.95 134.934 16.5C134.934 15.04 135.374 13.89 136.254 13.05C137.144 12.21 138.354 11.79 139.884 11.79C140.504 11.79 141.129 11.87 141.759 12.03C142.389 12.19 142.934 12.41 143.394 12.69L143.724 14.82H143.589C143.159 13.1 141.919 12.24 139.869 12.24C138.679 12.24 137.739 12.62 137.049 13.38C136.359 14.14 136.014 15.18 136.014 16.5C136.014 17.36 136.169 18.11 136.479 18.75C136.789 19.38 137.239 19.87 137.829 20.22C138.419 20.57 139.104 20.745 139.884 20.745C140.664 20.745 141.344 20.63 141.924 20.4C142.514 20.16 142.999 19.77 143.379 19.23C143.769 18.69 143.989 18.02 144.039 17.22H144.174L144.009 19.275C143.619 19.875 143.054 20.35 142.314 20.7C141.574 21.04 140.764 21.21 139.884 21.21ZM154.735 12.15H154.51C154.24 12.15 154.035 12.255 153.895 12.465C153.835 12.555 153.8 12.66 153.79 12.78V17.835C153.79 18.875 153.455 19.7 152.785 20.31C152.125 20.91 151.215 21.21 150.055 21.21C148.895 21.21 147.98 20.91 147.31 20.31C146.64 19.71 146.305 18.89 146.305 17.85V12.795C146.305 12.615 146.235 12.465 146.095 12.345C145.955 12.215 145.785 12.15 145.585 12.15H145.36V12H148.21V12.15H147.985C147.785 12.15 147.615 12.215 147.475 12.345C147.335 12.465 147.265 12.615 147.265 12.795V17.67C147.265 18.64 147.51 19.405 148 19.965C148.5 20.525 149.2 20.805 150.1 20.805C151.01 20.805 151.735 20.54 152.275 20.01C152.825 19.48 153.1 18.755 153.1 17.835V12.795C153.09 12.605 153.015 12.45 152.875 12.33C152.745 12.21 152.58 12.15 152.38 12.15H152.155V12H154.735V12.15ZM158.893 12.465H158.098V20.04C158.108 20.35 158.248 20.585 158.518 20.745C158.648 20.815 158.793 20.85 158.953 20.85H159.148L159.163 21H156.088V20.85H156.298C156.528 20.85 156.723 20.775 156.883 20.625C157.053 20.465 157.138 20.275 157.138 20.055V12.93C157.138 12.71 157.053 12.525 156.883 12.375C156.723 12.225 156.528 12.15 156.298 12.15H156.088V12H159.853C160.793 12 161.533 12.215 162.073 12.645C162.623 13.075 162.898 13.64 162.898 14.34C162.898 15.04 162.678 15.625 162.238 16.095C161.798 16.565 161.238 16.835 160.558 16.905C160.878 17.045 161.263 17.435 161.713 18.075C161.703 18.075 161.873 18.295 162.223 18.735C162.583 19.175 162.868 19.52 163.078 19.77C163.298 20.01 163.478 20.195 163.618 20.325C163.988 20.675 164.413 20.85 164.893 20.85V21H164.428C163.638 21 163.018 20.845 162.568 20.535C162.228 20.305 161.918 20.02 161.638 19.68C161.578 19.6 161.323 19.25 160.873 18.63C160.433 18 160.198 17.665 160.168 17.625C159.628 16.955 159.123 16.62 158.653 16.62V16.47C159.823 16.47 160.528 16.41 160.768 16.29C161.098 16.12 161.323 15.94 161.443 15.75C161.693 15.35 161.818 14.91 161.818 14.43C161.818 13.82 161.638 13.35 161.278 13.02C160.918 12.69 160.433 12.51 159.823 12.48C159.553 12.47 159.243 12.465 158.893 12.465ZM174.567 20.85H174.687V21H171.612V20.85H171.732C171.922 20.85 172.067 20.785 172.167 20.655C172.267 20.525 172.317 20.405 172.317 20.295C172.317 20.175 172.297 20.06 172.257 19.95L171.432 17.955H167.637L166.812 19.905C166.762 20.035 166.737 20.16 166.737 20.28C166.737 20.39 166.787 20.515 166.887 20.655C166.987 20.785 167.137 20.85 167.337 20.85H167.457V21H164.592V20.85H164.712C164.922 20.85 165.132 20.78 165.342 20.64C165.562 20.49 165.742 20.27 165.882 19.98C168.072 15.3 169.212 12.85 169.302 12.63C169.472 12.21 169.562 11.93 169.572 11.79H169.707L173.412 19.98C173.702 20.56 174.087 20.85 174.567 20.85ZM167.832 17.505H171.252L169.572 13.395L167.832 17.505Z" fill="#B69625"/>
<path d="M82 0C81.6147 0 81.3023 0.377775 81.3023 0.84375C81.3023 1.30974 81.6147 1.6875 82 1.6875C82.3853 1.6875 82.6977 1.30974 82.6977 0.84375C82.6977 0.377775 82.3853 0 82 0ZM81.6403 1.88086L80.0233 4.64062L77.9557 3.687C77.8804 3.77799 77.7893 3.84688 77.6868 3.88915L78.7442 7.59375H85.2558L86.3132 3.88915C86.2107 3.84688 86.1196 3.77799 86.0443 3.687L83.9767 4.64062L82.3597 1.88086C82.2486 1.93805 82.1277 1.96875 82 1.96875C81.8723 1.96875 81.7514 1.93805 81.6403 1.88086ZM77.4651 2.53125C77.2082 2.53125 77 2.7831 77 3.09375C77 3.40441 77.2082 3.65625 77.4651 3.65625C77.722 3.65625 77.9302 3.40441 77.9302 3.09375C77.9302 2.7831 77.722 2.53125 77.4651 2.53125ZM86.5349 2.53125C86.278 2.53125 86.0698 2.7831 86.0698 3.09375C86.0698 3.40441 86.278 3.65625 86.5349 3.65625C86.7918 3.65625 87 3.40441 87 3.09375C87 2.7831 86.7918 2.53125 86.5349 2.53125ZM78.7442 8.15625V9H85.2558V8.15625H78.7442Z" fill="#B69625"/>
</svg>
