<svg xmlns="http://www.w3.org/2000/svg" xmlns:xlink="http://www.w3.org/1999/xlink" version="1.1" x="0px" y="0px" viewBox="0 0 64 80" style="enable-background:new 0 0 64 64;" xml:space="preserve"><path d="M24.5,36c-4.687,0-8.5-3.813-8.5-8.5s3.813-8.5,8.5-8.5s8.5,3.813,8.5,8.5S29.187,36,24.5,36z M24.5,20  c-4.136,0-7.5,3.364-7.5,7.5s3.364,7.5,7.5,7.5s7.5-3.364,7.5-7.5S28.636,20,24.5,20z"/><path d="M34.5,28c-0.276,0-0.5-0.224-0.5-0.5c0-5.238-4.262-9.5-9.5-9.5c-0.276,0-0.5-0.224-0.5-0.5s0.224-0.5,0.5-0.5  C30.29,17,35,21.71,35,27.5C35,27.776,34.776,28,34.5,28z"/><path d="M24.5,38C18.71,38,14,33.29,14,27.5c0-0.276,0.224-0.5,0.5-0.5s0.5,0.224,0.5,0.5c0,5.238,4.262,9.5,9.5,9.5  c0.276,0,0.5,0.224,0.5,0.5S24.776,38,24.5,38z"/><path d="M16.5,22h-8C8.224,22,8,21.776,8,21.5S8.224,21,8.5,21h8c0.276,0,0.5,0.224,0.5,0.5S16.776,22,16.5,22z"/><path d="M14.5,25h-4c-0.276,0-0.5-0.224-0.5-0.5s0.224-0.5,0.5-0.5h4c0.276,0,0.5,0.224,0.5,0.5S14.776,25,14.5,25z"/><path d="M19.5,19h-4c-0.276,0-0.5-0.224-0.5-0.5s0.224-0.5,0.5-0.5h4c0.276,0,0.5,0.224,0.5,0.5S19.776,19,19.5,19z"/><path d="M39.5,43c-0.276,0-0.5-0.224-0.5-0.5V13H4v20.5C4,33.776,3.776,34,3.5,34S3,33.776,3,33.5v-21C3,12.224,3.224,12,3.5,12h36  c0.276,0,0.5,0.224,0.5,0.5v30C40,42.776,39.776,43,39.5,43z"/><path d="M60.5,43c-0.276,0-0.5-0.224-0.5-0.5V29H40v13.5c0,0.276-0.224,0.5-0.5,0.5S39,42.776,39,42.5v-14  c0-0.276,0.224-0.5,0.5-0.5h21c0.276,0,0.5,0.224,0.5,0.5v14C61,42.776,60.776,43,60.5,43z"/><path d="M57.5,29h-18c-0.276,0-0.5-0.224-0.5-0.5v-11c0-0.276,0.224-0.5,0.5-0.5h15c0.276,0,0.5,0.224,0.5,0.5S54.776,18,54.5,18H40  v10h16.845l-0.517-1.895c-0.073-0.267,0.084-0.542,0.351-0.614c0.266-0.069,0.541,0.084,0.614,0.351l0.689,2.526  c0.041,0.15,0.009,0.312-0.085,0.436C57.803,28.928,57.656,29,57.5,29z"/><path d="M56.035,23.63c-0.22,0-0.421-0.146-0.482-0.368l-0.529-1.938c-0.073-0.267,0.084-0.542,0.351-0.614  c0.263-0.068,0.541,0.085,0.614,0.351l0.529,1.938c0.073,0.267-0.084,0.542-0.351,0.614C56.123,23.624,56.079,23.63,56.035,23.63z"/><path d="M6.79,47H1.5C1.224,47,1,46.776,1,46.5v-4C1,42.224,1.224,42,1.5,42h5.29c0.276,0,0.5,0.224,0.5,0.5S7.066,43,6.79,43H2v3  h4.79c0.276,0,0.5,0.224,0.5,0.5S7.066,47,6.79,47z"/><path d="M43.79,47H20.21c-0.276,0-0.5-0.224-0.5-0.5s0.224-0.5,0.5-0.5h23.58c0.276,0,0.5,0.224,0.5,0.5S44.066,47,43.79,47z"/><path d="M62.5,47h-5.29c-0.276,0-0.5-0.224-0.5-0.5s0.224-0.5,0.5-0.5H62v-3h-4.79c-0.276,0-0.5-0.224-0.5-0.5s0.224-0.5,0.5-0.5  h5.29c0.276,0,0.5,0.224,0.5,0.5v4C63,46.776,62.776,47,62.5,47z"/><path d="M43.79,43H20.21c-0.276,0-0.5-0.224-0.5-0.5s0.224-0.5,0.5-0.5h23.58c0.276,0,0.5,0.224,0.5,0.5S44.066,43,43.79,43z"/><path d="M13.5,52C9.364,52,6,48.636,6,44.5S9.364,37,13.5,37s7.5,3.364,7.5,7.5S17.636,52,13.5,52z M13.5,38  C9.916,38,7,40.916,7,44.5S9.916,51,13.5,51s6.5-2.916,6.5-6.5S17.084,38,13.5,38z"/><path d="M50.5,52c-4.136,0-7.5-3.364-7.5-7.5s3.364-7.5,7.5-7.5s7.5,3.364,7.5,7.5S54.636,52,50.5,52z M50.5,38  c-3.584,0-6.5,2.916-6.5,6.5s2.916,6.5,6.5,6.5s6.5-2.916,6.5-6.5S54.084,38,50.5,38z"/><path d="M50.5,48c-1.93,0-3.5-1.57-3.5-3.5s1.57-3.5,3.5-3.5s3.5,1.57,3.5,3.5S52.43,48,50.5,48z M50.5,42  c-1.378,0-2.5,1.121-2.5,2.5s1.122,2.5,2.5,2.5s2.5-1.121,2.5-2.5S51.878,42,50.5,42z"/><path d="M13.5,48c-1.93,0-3.5-1.57-3.5-3.5s1.57-3.5,3.5-3.5s3.5,1.57,3.5,3.5S15.43,48,13.5,48z M13.5,42  c-1.378,0-2.5,1.121-2.5,2.5s1.122,2.5,2.5,2.5s2.5-1.121,2.5-2.5S14.878,42,13.5,42z"/><path d="M60.5,38h-4c-0.276,0-0.5-0.224-0.5-0.5v-4c0-0.276,0.224-0.5,0.5-0.5h4c0.276,0,0.5,0.224,0.5,0.5v4  C61,37.776,60.776,38,60.5,38z M57,37h3v-3h-3V37z"/><path d="M3.5,39C3.224,39,3,38.776,3,38.5v-2C3,36.224,3.224,36,3.5,36S4,36.224,4,36.5v2C4,38.776,3.776,39,3.5,39z"/><path d="M21.5,32c-0.104,0-0.209-0.032-0.299-0.1c-0.221-0.166-0.266-0.479-0.1-0.7l2.9-3.867V22.5c0-0.276,0.224-0.5,0.5-0.5  s0.5,0.224,0.5,0.5v5c0,0.108-0.035,0.214-0.1,0.3l-3,4C21.802,31.931,21.652,32,21.5,32z"/><text x="0" y="79" fill="#000000" font-size="5px" font-weight="bold" font-family="'Helvetica Neue', Helvetica, Arial-Unicode, Arial, Sans-serif">Created by Silvia Natalia</text><text x="0" y="84" fill="#000000" font-size="5px" font-weight="bold" font-family="'Helvetica Neue', Helvetica, Arial-Unicode, Arial, Sans-serif">from the Noun Project</text></svg>