<svg width="100" height="85" viewBox="0 0 100 85" fill="none" xmlns="http://www.w3.org/2000/svg">
<path d="M99.0845 33.6765C99.0102 33.2885 98.7841 32.9497 98.4602 32.741C98.1397 32.5338 97.7482 32.4724 97.3769 32.5726C97.3173 32.589 97.261 32.5982 97.2015 32.6144V10.1829C97.2015 5.11739 93.2397 0.998047 88.3737 0.998047H9.60387C4.7343 0.998047 0.772461 5.11761 0.772461 10.1829V55.0283C0.772461 60.0939 4.7343 64.2132 9.60387 64.2132H50.8331C54.1916 73.0529 60.7936 81.3245 73.414 84.9474C73.5355 84.9825 73.6568 84.9999 73.7817 84.9999C73.9066 84.9999 74.0281 84.9825 74.1494 84.9474C84.5332 81.967 91.9234 75.4833 96.118 65.6717C102.375 51.0406 99.223 34.3784 99.0845 33.6765ZM9.60387 61.3384C6.25969 61.3384 3.53978 58.5073 3.53978 55.0286V10.1829C3.53978 6.70417 6.25969 3.87308 9.60387 3.87308H88.3737C91.7178 3.87308 94.4344 6.70417 94.4344 10.1829V33.1619C80.6359 35.2075 75.0578 22.9356 74.8213 22.3993C74.6087 21.9114 74.1532 21.5866 73.6403 21.5569C73.1239 21.5218 72.6381 21.7938 72.3748 22.2554C63.4423 37.8785 50.8381 33.2711 50.3151 33.071C49.9337 32.9235 49.5119 32.9622 49.1576 33.1658C48.8033 33.373 48.5536 33.7292 48.476 34.1434C48.2958 35.1032 45.9368 48.3594 49.8488 61.3386H9.60387V61.3384ZM93.5942 64.5032C89.8011 73.374 83.1363 79.282 73.7819 82.0693C62.1028 78.5903 56.0936 70.6844 53.1023 62.3064C53.0888 62.2661 53.0816 62.2245 53.0648 62.186C49.3218 51.595 50.3768 40.2803 50.9462 36.2112C54.908 37.0852 65.4334 37.9769 73.502 25.7572C76.1239 29.9222 83.1635 38.4051 96.0814 35.8304C96.2569 35.7953 96.4323 35.7584 96.6112 35.7199C97.215 40.0425 98.4602 53.1206 93.5942 64.5032Z" fill="#284D39"/>
<path d="M86.1092 49.4011H84.7155V43.7775C84.7155 37.9626 80.1665 33.2305 74.5749 33.2305C68.9831 33.2305 64.4342 37.9626 64.4342 43.7775V49.4011H63.0405C62.2779 49.4011 61.657 50.0454 61.657 50.8386V71.8819C61.657 72.6752 62.2779 73.3211 63.0405 73.3211H86.1092C86.8718 73.3211 87.4928 72.6752 87.4928 71.8819V50.8386C87.4928 50.0454 86.8718 49.4011 86.1092 49.4011ZM67.2014 43.7775C67.2014 39.5474 70.5085 36.1055 74.5749 36.1055C78.6413 36.1055 81.9484 39.5474 81.9484 43.7775V49.4011H67.2014V43.7775ZM84.7257 70.4444H64.4241V52.2762H84.7257V70.4444Z" fill="#284D39"/>
<path d="M79.1338 58.2337C79.1338 55.6201 77.0889 53.4929 74.5749 53.4929C72.0608 53.4929 70.0159 55.6203 70.0159 58.2337C70.0159 59.4024 70.4302 60.4899 71.1549 61.3467L70.0397 67.5273C69.9653 67.9469 70.0734 68.3822 70.3366 68.7103C70.5998 69.0402 70.988 69.2298 71.3996 69.2298H77.7507C78.1623 69.2298 78.5506 69.0402 78.8137 68.7103C79.0769 68.382 79.185 67.9484 79.1107 67.5291L78.0004 61.343C78.7203 60.4886 79.1338 59.4019 79.1338 58.2337ZM73.0664 66.355L74.0112 61.1193C74.0295 61.0169 74.0096 60.9198 74.0069 60.8199C74.0052 60.7574 74.0135 60.6969 74.004 60.6348C73.9837 60.5011 73.9371 60.3807 73.8831 60.2603C73.8626 60.2144 73.8512 60.167 73.8261 60.1231C73.7512 59.9925 73.6524 59.8842 73.5414 59.7838C73.5193 59.7636 73.5085 59.7356 73.4849 59.7166C73.0395 59.3587 72.783 58.818 72.783 58.2335C72.783 57.205 73.5862 56.3677 74.5749 56.3677C75.5636 56.3677 76.3667 57.205 76.3667 58.2335C76.3667 58.8197 76.1137 59.3604 75.6648 59.7149C75.6172 59.7528 75.5928 59.8075 75.5511 59.8504C75.4733 59.9307 75.3958 60.0072 75.3385 60.1041C75.296 60.1752 75.2741 60.2521 75.2447 60.329C75.2085 60.4227 75.1697 60.5121 75.153 60.6131C75.1374 60.7072 75.1459 60.8 75.1486 60.8959C75.1505 60.9704 75.1318 61.0415 75.1453 61.1173L76.0868 66.3548H73.0664V66.355Z" fill="#284D39"/>
<path d="M34.2924 5.76343C32.1361 5.76343 30.126 6.34584 28.3196 7.29141C26.4532 6.3075 24.3895 5.76343 22.2789 5.76343C14.892 5.76343 8.88171 12.0136 8.88171 19.6979C8.88171 27.3822 14.892 33.6324 22.2789 33.6324C24.3876 33.6324 26.4549 33.0881 28.3198 32.1044C30.1262 33.0498 32.1361 33.6324 34.2924 33.6324C41.6794 33.6324 47.6896 27.3822 47.6896 19.6979C47.6896 12.0136 41.6794 5.76343 34.2924 5.76343ZM22.2789 30.7576C16.4174 30.7576 11.649 25.7956 11.649 19.6981C11.649 13.6006 16.4174 8.63868 22.2789 8.63868C23.3981 8.63868 24.4862 8.87841 25.5407 9.23359C22.7187 11.7901 20.8954 15.5086 20.8954 19.6981C20.8954 23.8877 22.7189 27.6062 25.5409 30.1627C24.4866 30.5178 23.3985 30.7576 22.2789 30.7576ZM34.2924 30.7576C28.4308 30.7576 23.6625 25.7956 23.6625 19.6981C23.6625 13.6006 28.4308 8.63868 34.2924 8.63868C40.154 8.63868 44.9223 13.6006 44.9223 19.6981C44.9223 25.7956 40.1542 30.7576 34.2924 30.7576Z" fill="#284D39"/>
<path d="M41.037 53.3901H37.5216C36.7457 53.3901 36.114 54.0473 36.114 54.8541C36.114 55.6612 36.7457 56.3184 37.5216 56.3184H41.037C41.8129 56.3184 42.4446 55.6612 42.4446 54.8541C42.4446 54.0471 41.8129 53.3901 41.037 53.3901Z" fill="#284D39"/>
<path d="M33.388 53.3901H29.2545C28.4789 53.3901 27.8472 54.0473 27.8472 54.8541C27.8472 55.6612 28.4789 56.3184 29.2545 56.3184H33.388C34.1639 56.3184 34.7956 55.6612 34.7956 54.8541C34.7958 54.0471 34.1641 53.3901 33.388 53.3901Z" fill="#284D39"/>
<path d="M25.1213 53.3901H20.9913C20.2155 53.3901 19.5837 54.0473 19.5837 54.8541C19.5837 55.6612 20.2155 56.3184 20.9913 56.3184H25.1213C25.8971 56.3184 26.5289 55.6612 26.5289 54.8541C26.5289 54.0471 25.8971 53.3901 25.1213 53.3901Z" fill="#284D39"/>
<path d="M16.8579 53.3901H13.3425C12.5667 53.3901 11.9349 54.0473 11.9349 54.8541C11.9349 55.6612 12.5667 56.3184 13.3425 56.3184H16.8579C17.6338 56.3184 18.2655 55.6612 18.2655 54.8541C18.2657 54.0471 17.634 53.3901 16.8579 53.3901Z" fill="#284D39"/>
<path d="M41.037 45.769H37.5216C36.7457 45.769 36.114 46.4262 36.114 47.2333C36.114 48.0401 36.7457 48.6973 37.5216 48.6973H41.037C41.8129 48.6973 42.4446 48.0401 42.4446 47.2333C42.4446 46.4262 41.8129 45.769 41.037 45.769Z" fill="#284D39"/>
<path d="M33.388 45.769H29.2545C28.4789 45.769 27.8472 46.4262 27.8472 47.2333C27.8472 48.0401 28.4789 48.6973 29.2545 48.6973H33.388C34.1639 48.6973 34.7956 48.0401 34.7956 47.2333C34.7958 46.4262 34.1641 45.769 33.388 45.769Z" fill="#284D39"/>
<path d="M25.1213 45.769H20.9913C20.2155 45.769 19.5837 46.4262 19.5837 47.2333C19.5837 48.0401 20.2155 48.6973 20.9913 48.6973H25.1213C25.8971 48.6973 26.5289 48.0401 26.5289 47.2333C26.5289 46.4262 25.8971 45.769 25.1213 45.769Z" fill="#284D39"/>
<path d="M16.8579 45.769H13.3425C12.5667 45.769 11.9349 46.4262 11.9349 47.2333C11.9349 48.0401 12.5667 48.6973 13.3425 48.6973H16.8579C17.6338 48.6973 18.2655 48.0401 18.2655 47.2333C18.2657 46.4262 17.634 45.769 16.8579 45.769Z" fill="#284D39"/>
<path d="M34.9279 16.9769V14.5561C35.2068 14.7123 35.4064 14.8669 35.5271 15.0203C35.6478 15.1739 35.7832 15.4485 35.9334 15.8446L38.9256 15.3509C38.7326 14.4583 38.3183 13.7555 37.6828 13.2423C37.0473 12.729 36.129 12.4335 34.9279 12.3555V11.5271H33.7535V12.3555C32.4345 12.4279 31.441 12.7977 30.7733 13.4654C30.1057 14.1322 29.772 14.9617 29.772 15.956C29.772 16.6814 29.9384 17.2963 30.2708 17.8025C30.6031 18.3074 30.9961 18.674 31.4491 18.9027C31.9022 19.1312 32.6703 19.4033 33.7535 19.7156V22.6721C33.3781 22.4825 33.1087 22.2648 32.9451 22.0196C32.7817 21.7741 32.6515 21.3752 32.5552 20.8229L29.3057 21.2162C29.4019 21.7739 29.5469 22.2495 29.7399 22.6428C29.9328 23.0358 30.2076 23.4027 30.5644 23.743C30.9209 24.0833 31.3446 24.3495 31.8351 24.5421C32.3258 24.7344 32.9654 24.8671 33.7535 24.9395V26.5209H34.9279V24.9395C35.5874 24.9117 36.145 24.821 36.6009 24.6676C37.0566 24.5143 37.4871 24.2675 37.8919 23.9271C38.2969 23.5855 38.6293 23.1614 38.8893 22.654C39.1494 22.1463 39.2794 21.5869 39.2794 20.9791C39.2794 19.9403 38.9175 19.0839 38.1934 18.409C37.6466 17.9057 36.5581 17.4286 34.9279 16.9769ZM33.7537 16.6661C33.4145 16.5433 33.1766 16.3913 33.0406 16.2086C32.9043 16.0257 32.8366 15.8125 32.8366 15.5657C32.8366 15.3298 32.9037 15.125 33.0379 14.952C33.172 14.7776 33.4106 14.6313 33.7537 14.5141V16.6661ZM35.9294 22.2316C35.7176 22.4743 35.3838 22.6501 34.9281 22.7558V20.0699C35.4489 20.2595 35.7994 20.466 35.9785 20.6862C36.1576 20.908 36.2473 21.149 36.2473 21.4129C36.2471 21.7155 36.141 21.9873 35.9294 22.2316Z" fill="#284D39"/>
</svg>
