<svg width="25" height="25" viewBox="0 0 25 25" fill="none" xmlns="http://www.w3.org/2000/svg">
<path d="M12.4974 0C8.38625 0 5.04246 3.34448 5.04246 7.45649C5.04246 9.67292 6.01845 11.6601 7.55848 13.0282C3.00202 14.9874 0 19.4972 0 24.5132C0 24.7836 0.213696 25 0.486643 25H24.5082C24.7786 25 25 24.7837 25 24.5132C25.0024 19.4972 21.9953 14.99 17.4415 13.0282C18.9815 11.6601 19.9524 9.67292 19.9524 7.45649C19.9524 3.34448 16.6086 0 12.4974 0ZM12.5021 0.978673C16.0725 0.978673 18.9786 3.88268 18.9786 7.45649C18.9786 11.0277 16.0725 13.9343 12.5021 13.9343C8.93166 13.9343 6.02559 11.0303 6.02559 7.45649C6.02559 3.88268 8.93166 0.978673 12.5021 0.978673ZM8.46919 13.722C9.6328 14.475 11.0151 14.913 12.5021 14.913C13.9891 14.913 15.3662 14.4723 16.5298 13.722C20.8663 15.3419 23.8172 19.4108 24.0107 24.0265H0.993495C1.18689 19.4134 4.13798 15.3446 8.46919 13.722Z" fill="#284D39"/>
</svg>
