<svg width="27" height="27" viewBox="0 0 27 27" fill="none" xmlns="http://www.w3.org/2000/svg">
<mask id="path-1-outside-1" maskUnits="userSpaceOnUse" x="0" y="0" width="27" height="27" fill="black">
<rect fill="white" width="27" height="27"/>
<path d="M25.9867 23.4033L24.0657 8.00611C24.0657 7.99084 24.0592 7.97047 24.0527 7.95519V7.9501C24.0462 7.93483 24.0397 7.91955 24.0267 7.90428V7.89919C24.0202 7.88391 24.0073 7.86864 23.9943 7.85845C23.9943 7.85845 23.9943 7.85336 23.9878 7.85336C23.9748 7.83809 23.9618 7.8279 23.9424 7.81772L23.9359 7.81263C23.9229 7.80244 23.9099 7.79226 23.8904 7.78717L20.626 6.10692H20.6195C20.6195 6.10692 20.613 6.10693 20.613 6.10183C20.5935 6.09165 20.5741 6.08656 20.5546 6.08147C20.5351 6.07638 20.5092 6.07128 20.4897 6.06619C20.4637 6.0611 20.4443 6.0611 20.4183 6.0611H19.5681C19.5032 4.65071 18.361 3.44908 16.7709 2.95519C16.0506 1.79939 14.5319 1 12.7796 1C10.3329 1 8.33397 2.56314 8.33397 4.48778V6.06619H3.32371C3.29775 6.06619 3.27828 6.06619 3.25881 6.07128H3.25232C3.23285 6.07638 3.21338 6.08147 3.18742 6.08656H3.18093C3.16146 6.09165 3.14199 6.10183 3.12252 6.10692C3.12252 6.10692 3.11603 6.10692 3.11603 6.11202C3.09656 6.1222 3.08358 6.13238 3.06411 6.14257L3.05762 6.14766C3.04464 6.15784 3.03166 6.16802 3.01219 6.1833L3.0057 6.18839C2.99921 6.19348 2.99921 6.19857 2.99272 6.20367C2.98623 6.21385 2.97974 6.22403 2.97325 6.22912C2.97325 6.22912 2.97325 6.22912 2.97325 6.23422C2.96027 6.24949 2.95378 6.26477 2.94729 6.28513C2.9408 6.3055 2.93431 6.32077 2.93431 6.34114V6.34623L1.01328 21.723C0.935402 22.3493 1.20149 22.9603 1.77261 23.4491C2.40863 23.999 3.34967 24.3248 4.29072 24.3248H4.41403C4.54383 24.61 4.75151 24.8798 5.02409 25.1242C5.6601 25.6741 6.60115 26 7.5422 26H22.7093C23.6568 26 24.5979 25.6741 25.2339 25.1242C25.7985 24.6354 26.0646 24.0244 25.9867 23.4033ZM11.4621 7.73116V6.66701H16.8294H18.7893V7.73116H11.4621ZM6.6985 7.73116L4.6282 6.66701H8.72337H10.6833V7.73116H6.6985ZM16.44 4.4776V6.05601H11.4686C11.5595 4.52851 13.1625 3.31161 15.129 3.31161C15.4989 3.31161 15.8559 3.35743 16.1933 3.43381C16.3556 3.75967 16.44 4.111 16.44 4.4776ZM19.5681 6.66701H20.0614L20.1977 7.73116H19.5746L19.5681 6.66701ZM20.9764 7.73116L20.8791 6.96741L22.3653 7.73116H20.9764ZM18.7893 6.05601H17.2252V4.4776C17.2252 4.23829 17.1928 4.00917 17.1344 3.78004C18.0884 4.27393 18.7309 5.10387 18.7893 6.05601ZM9.11277 4.4776C9.11277 2.89409 10.7547 1.60081 12.7796 1.60081C13.9608 1.60081 15.0122 2.04379 15.6871 2.72607C15.5054 2.7057 15.3172 2.69552 15.129 2.69552C12.7342 2.69552 10.7807 4.18737 10.6898 6.05092H9.11277V4.4776ZM4.25827 23.7138C3.53788 23.7088 2.83048 23.4542 2.35022 23.0418C1.93486 22.6802 1.73367 22.2373 1.79208 21.7841L3.6547 6.89613L6.1793 8.1945L4.27774 23.4033C4.27125 23.4491 4.27125 23.4949 4.26476 23.5407C4.26476 23.556 4.26476 23.5764 4.26476 23.5916C4.26476 23.6222 4.26476 23.6477 4.26476 23.6782C4.25827 23.6935 4.25827 23.7037 4.25827 23.7138ZM24.6563 24.7118C24.1695 25.1344 23.4426 25.389 22.7093 25.389H7.5422C6.81532 25.389 6.08844 25.1344 5.5952 24.7118C5.31614 24.4674 5.13442 24.1874 5.06303 23.8971C5.05654 23.8819 5.05654 23.8666 5.05654 23.8564C5.05005 23.836 5.05005 23.8157 5.04356 23.7953C5.03707 23.7699 5.03707 23.7393 5.03058 23.7138C5.03058 23.6986 5.03058 23.6782 5.03058 23.6629C5.03058 23.6426 5.03058 23.6273 5.03058 23.6069C5.03058 23.5917 5.03058 23.5764 5.03058 23.5662C5.03058 23.5306 5.03707 23.5 5.03707 23.4644L6.93214 8.34216H20.626H23.3193L25.2079 23.4644C25.2663 23.9124 25.0716 24.3554 24.6563 24.7118Z"/>
</mask>
<path d="M25.9867 23.4033L24.0657 8.00611C24.0657 7.99084 24.0592 7.97047 24.0527 7.95519V7.9501C24.0462 7.93483 24.0397 7.91955 24.0267 7.90428V7.89919C24.0202 7.88391 24.0073 7.86864 23.9943 7.85845C23.9943 7.85845 23.9943 7.85336 23.9878 7.85336C23.9748 7.83809 23.9618 7.8279 23.9424 7.81772L23.9359 7.81263C23.9229 7.80244 23.9099 7.79226 23.8904 7.78717L20.626 6.10692H20.6195C20.6195 6.10692 20.613 6.10693 20.613 6.10183C20.5935 6.09165 20.5741 6.08656 20.5546 6.08147C20.5351 6.07638 20.5092 6.07128 20.4897 6.06619C20.4637 6.0611 20.4443 6.0611 20.4183 6.0611H19.5681C19.5032 4.65071 18.361 3.44908 16.7709 2.95519C16.0506 1.79939 14.5319 1 12.7796 1C10.3329 1 8.33397 2.56314 8.33397 4.48778V6.06619H3.32371C3.29775 6.06619 3.27828 6.06619 3.25881 6.07128H3.25232C3.23285 6.07638 3.21338 6.08147 3.18742 6.08656H3.18093C3.16146 6.09165 3.14199 6.10183 3.12252 6.10692C3.12252 6.10692 3.11603 6.10692 3.11603 6.11202C3.09656 6.1222 3.08358 6.13238 3.06411 6.14257L3.05762 6.14766C3.04464 6.15784 3.03166 6.16802 3.01219 6.1833L3.0057 6.18839C2.99921 6.19348 2.99921 6.19857 2.99272 6.20367C2.98623 6.21385 2.97974 6.22403 2.97325 6.22912C2.97325 6.22912 2.97325 6.22912 2.97325 6.23422C2.96027 6.24949 2.95378 6.26477 2.94729 6.28513C2.9408 6.3055 2.93431 6.32077 2.93431 6.34114V6.34623L1.01328 21.723C0.935402 22.3493 1.20149 22.9603 1.77261 23.4491C2.40863 23.999 3.34967 24.3248 4.29072 24.3248H4.41403C4.54383 24.61 4.75151 24.8798 5.02409 25.1242C5.6601 25.6741 6.60115 26 7.5422 26H22.7093C23.6568 26 24.5979 25.6741 25.2339 25.1242C25.7985 24.6354 26.0646 24.0244 25.9867 23.4033ZM11.4621 7.73116V6.66701H16.8294H18.7893V7.73116H11.4621ZM6.6985 7.73116L4.6282 6.66701H8.72337H10.6833V7.73116H6.6985ZM16.44 4.4776V6.05601H11.4686C11.5595 4.52851 13.1625 3.31161 15.129 3.31161C15.4989 3.31161 15.8559 3.35743 16.1933 3.43381C16.3556 3.75967 16.44 4.111 16.44 4.4776ZM19.5681 6.66701H20.0614L20.1977 7.73116H19.5746L19.5681 6.66701ZM20.9764 7.73116L20.8791 6.96741L22.3653 7.73116H20.9764ZM18.7893 6.05601H17.2252V4.4776C17.2252 4.23829 17.1928 4.00917 17.1344 3.78004C18.0884 4.27393 18.7309 5.10387 18.7893 6.05601ZM9.11277 4.4776C9.11277 2.89409 10.7547 1.60081 12.7796 1.60081C13.9608 1.60081 15.0122 2.04379 15.6871 2.72607C15.5054 2.7057 15.3172 2.69552 15.129 2.69552C12.7342 2.69552 10.7807 4.18737 10.6898 6.05092H9.11277V4.4776ZM4.25827 23.7138C3.53788 23.7088 2.83048 23.4542 2.35022 23.0418C1.93486 22.6802 1.73367 22.2373 1.79208 21.7841L3.6547 6.89613L6.1793 8.1945L4.27774 23.4033C4.27125 23.4491 4.27125 23.4949 4.26476 23.5407C4.26476 23.556 4.26476 23.5764 4.26476 23.5916C4.26476 23.6222 4.26476 23.6477 4.26476 23.6782C4.25827 23.6935 4.25827 23.7037 4.25827 23.7138ZM24.6563 24.7118C24.1695 25.1344 23.4426 25.389 22.7093 25.389H7.5422C6.81532 25.389 6.08844 25.1344 5.5952 24.7118C5.31614 24.4674 5.13442 24.1874 5.06303 23.8971C5.05654 23.8819 5.05654 23.8666 5.05654 23.8564C5.05005 23.836 5.05005 23.8157 5.04356 23.7953C5.03707 23.7699 5.03707 23.7393 5.03058 23.7138C5.03058 23.6986 5.03058 23.6782 5.03058 23.6629C5.03058 23.6426 5.03058 23.6273 5.03058 23.6069C5.03058 23.5917 5.03058 23.5764 5.03058 23.5662C5.03058 23.5306 5.03707 23.5 5.03707 23.4644L6.93214 8.34216H20.626H23.3193L25.2079 23.4644C25.2663 23.9124 25.0716 24.3554 24.6563 24.7118Z" fill="#284D39"/>
<path d="M25.9867 23.4033L24.0657 8.00611C24.0657 7.99084 24.0592 7.97047 24.0527 7.95519V7.9501C24.0462 7.93483 24.0397 7.91955 24.0267 7.90428V7.89919C24.0202 7.88391 24.0073 7.86864 23.9943 7.85845C23.9943 7.85845 23.9943 7.85336 23.9878 7.85336C23.9748 7.83809 23.9618 7.8279 23.9424 7.81772L23.9359 7.81263C23.9229 7.80244 23.9099 7.79226 23.8904 7.78717L20.626 6.10692H20.6195C20.6195 6.10692 20.613 6.10693 20.613 6.10183C20.5935 6.09165 20.5741 6.08656 20.5546 6.08147C20.5351 6.07638 20.5092 6.07128 20.4897 6.06619C20.4637 6.0611 20.4443 6.0611 20.4183 6.0611H19.5681C19.5032 4.65071 18.361 3.44908 16.7709 2.95519C16.0506 1.79939 14.5319 1 12.7796 1C10.3329 1 8.33397 2.56314 8.33397 4.48778V6.06619H3.32371C3.29775 6.06619 3.27828 6.06619 3.25881 6.07128H3.25232C3.23285 6.07638 3.21338 6.08147 3.18742 6.08656H3.18093C3.16146 6.09165 3.14199 6.10183 3.12252 6.10692C3.12252 6.10692 3.11603 6.10692 3.11603 6.11202C3.09656 6.1222 3.08358 6.13238 3.06411 6.14257L3.05762 6.14766C3.04464 6.15784 3.03166 6.16802 3.01219 6.1833L3.0057 6.18839C2.99921 6.19348 2.99921 6.19857 2.99272 6.20367C2.98623 6.21385 2.97974 6.22403 2.97325 6.22912C2.97325 6.22912 2.97325 6.22912 2.97325 6.23422C2.96027 6.24949 2.95378 6.26477 2.94729 6.28513C2.9408 6.3055 2.93431 6.32077 2.93431 6.34114V6.34623L1.01328 21.723C0.935402 22.3493 1.20149 22.9603 1.77261 23.4491C2.40863 23.999 3.34967 24.3248 4.29072 24.3248H4.41403C4.54383 24.61 4.75151 24.8798 5.02409 25.1242C5.6601 25.6741 6.60115 26 7.5422 26H22.7093C23.6568 26 24.5979 25.6741 25.2339 25.1242C25.7985 24.6354 26.0646 24.0244 25.9867 23.4033ZM11.4621 7.73116V6.66701H16.8294H18.7893V7.73116H11.4621ZM6.6985 7.73116L4.6282 6.66701H8.72337H10.6833V7.73116H6.6985ZM16.44 4.4776V6.05601H11.4686C11.5595 4.52851 13.1625 3.31161 15.129 3.31161C15.4989 3.31161 15.8559 3.35743 16.1933 3.43381C16.3556 3.75967 16.44 4.111 16.44 4.4776ZM19.5681 6.66701H20.0614L20.1977 7.73116H19.5746L19.5681 6.66701ZM20.9764 7.73116L20.8791 6.96741L22.3653 7.73116H20.9764ZM18.7893 6.05601H17.2252V4.4776C17.2252 4.23829 17.1928 4.00917 17.1344 3.78004C18.0884 4.27393 18.7309 5.10387 18.7893 6.05601ZM9.11277 4.4776C9.11277 2.89409 10.7547 1.60081 12.7796 1.60081C13.9608 1.60081 15.0122 2.04379 15.6871 2.72607C15.5054 2.7057 15.3172 2.69552 15.129 2.69552C12.7342 2.69552 10.7807 4.18737 10.6898 6.05092H9.11277V4.4776ZM4.25827 23.7138C3.53788 23.7088 2.83048 23.4542 2.35022 23.0418C1.93486 22.6802 1.73367 22.2373 1.79208 21.7841L3.6547 6.89613L6.1793 8.1945L4.27774 23.4033C4.27125 23.4491 4.27125 23.4949 4.26476 23.5407C4.26476 23.556 4.26476 23.5764 4.26476 23.5916C4.26476 23.6222 4.26476 23.6477 4.26476 23.6782C4.25827 23.6935 4.25827 23.7037 4.25827 23.7138ZM24.6563 24.7118C24.1695 25.1344 23.4426 25.389 22.7093 25.389H7.5422C6.81532 25.389 6.08844 25.1344 5.5952 24.7118C5.31614 24.4674 5.13442 24.1874 5.06303 23.8971C5.05654 23.8819 5.05654 23.8666 5.05654 23.8564C5.05005 23.836 5.05005 23.8157 5.04356 23.7953C5.03707 23.7699 5.03707 23.7393 5.03058 23.7138C5.03058 23.6986 5.03058 23.6782 5.03058 23.6629C5.03058 23.6426 5.03058 23.6273 5.03058 23.6069C5.03058 23.5917 5.03058 23.5764 5.03058 23.5662C5.03058 23.5306 5.03707 23.5 5.03707 23.4644L6.93214 8.34216H20.626H23.3193L25.2079 23.4644C25.2663 23.9124 25.0716 24.3554 24.6563 24.7118Z" stroke="#284D39" stroke-width="0.4" mask="url(#path-1-outside-1)"/>
</svg>
