<svg width="25" height="25" viewBox="0 0 25 25" fill="none" xmlns="http://www.w3.org/2000/svg">
<path d="M0.198696 24.803C0.334556 24.9389 0.504382 25 0.681 25C0.857618 25 1.02744 24.9321 1.1633 24.803L6.95095 19.0149C8.93451 20.7745 11.4547 21.7391 14.1312 21.7391C17.0318 21.7391 19.7626 20.6114 21.8141 18.553C23.8656 16.5014 25 13.7704 25 10.8696C25 7.96875 23.8724 5.23777 21.8141 3.18614C19.7626 1.13451 17.0318 0 14.1312 0C11.2306 0 8.49976 1.12772 6.44827 3.18614C4.39678 5.23777 3.26235 7.96875 3.26235 10.8696C3.26235 13.5462 4.23375 16.0666 5.98635 18.0503L0.198696 23.8383C-0.0662319 24.1033 -0.0662319 24.538 0.198696 24.803ZM4.62095 10.8696C4.62095 8.3288 5.61273 5.9375 7.40609 4.14402C9.19944 2.35054 11.5906 1.3587 14.1312 1.3587C16.6718 1.3587 19.0629 2.35054 20.8563 4.14402C22.6496 5.9375 23.6414 8.3288 23.6414 10.8696C23.6414 13.4103 22.6496 15.7948 20.8563 17.5951C19.0629 19.3954 16.6718 20.3804 14.1312 20.3804C11.5906 20.3804 9.20623 19.3886 7.40609 17.5951C5.61273 15.8016 4.62095 13.4103 4.62095 10.8696Z" fill="#284D39"/>
</svg>
