<svg width="25" height="25" viewBox="0 0 25 25" fill="none" xmlns="http://www.w3.org/2000/svg">
<path d="M24.8013 24.803C24.6654 24.9389 24.4956 25 24.319 25C24.1424 25 23.9726 24.9321 23.8367 24.803L18.049 19.0149C16.0655 20.7745 13.5453 21.7391 10.8688 21.7391C7.96821 21.7391 5.23742 20.6114 3.18593 18.553C1.13444 16.5014 1.90735e-06 13.7704 1.90735e-06 10.8696C1.90735e-06 7.96875 1.12764 5.23777 3.18593 3.18614C5.23742 1.13451 7.96821 0 10.8688 0C13.7694 0 16.5002 1.12772 18.5517 3.18614C20.6032 5.23777 21.7377 7.96875 21.7377 10.8696C21.7377 13.5462 20.7663 16.0666 19.0137 18.0503L24.8013 23.8383C25.0662 24.1033 25.0662 24.538 24.8013 24.803ZM20.3791 10.8696C20.3791 8.3288 19.3873 5.9375 17.5939 4.14402C15.8006 2.35054 13.4094 1.3587 10.8688 1.3587C8.32824 1.3587 5.9371 2.35054 4.14374 4.14402C2.35039 5.9375 1.3586 8.3288 1.3586 10.8696C1.3586 13.4103 2.35039 15.7948 4.14374 17.5951C5.9371 19.3954 8.32824 20.3804 10.8688 20.3804C13.4094 20.3804 15.7938 19.3886 17.5939 17.5951C19.3873 15.8016 20.3791 13.4103 20.3791 10.8696Z" fill="#B69625"/>
</svg>
